# xmcd
#
# Track frame offsets:
#	150
#	18270
#	36392
#
# Disc length: 722 seconds
#
# Revision: 0
# Processed by: cddbd v1.5.1PL0 Copyright (c) Steve Scherf et al.
# Submitted via: audiograbber 1.83.01
#
DISCID=1c02d003
DTITLE=Darryl Worley - Have You Forgotten? (Promo)
DYEAR=2003
DGENRE=Country
TTITLE0=Have You Forgotten?
TTITLE1=Have You Forgotten?
TTITLE2=Have You Forgotten?
EXTD=
EXTT0=
EXTT1=
EXTT2=
PLAYORDER=
